<svg width="140" height="51" viewBox="0 0 140 51" fill="none" xmlns="http://www.w3.org/2000/svg">
<path d="M5.93149 18.5293H0V41.0801H5.93149V18.5293Z" fill="white"/>
<path d="M24.7186 41.0799V27.4458C24.7186 24.3173 23.0839 23.2416 20.5601 23.2416C18.2191 23.2416 16.4461 24.5492 15.4189 25.8569V41.0799H9.48242V18.5291H15.4189V21.4207C16.8659 19.743 19.6712 17.9666 23.316 17.9666C28.314 17.9666 30.6995 20.7694 30.6995 25.1562V41.075H24.7186V41.0799Z" fill="white"/>
<path d="M49.7189 33.7967V25.8126C48.741 24.3175 46.5877 23.2417 44.6221 23.2417C41.2143 23.2417 38.8783 25.9064 38.8783 29.78C38.8783 33.6536 41.2143 36.3626 44.6221 36.3626C46.5877 36.3626 48.7361 35.2869 49.7189 33.7918M49.7189 41.0751V38.1785C47.9409 40.4188 45.5111 41.6327 42.7552 41.6327C37.1003 41.6327 32.7542 37.3347 32.7542 29.775C32.7542 22.2153 37.0065 17.9618 42.7552 17.9618C45.4172 17.9618 47.9409 19.0819 49.7189 21.416V9.93823H55.6998V41.0801H49.7189V41.0751Z" fill="white"/>
<path d="M74.4869 41.0799V38.2277C72.946 39.9104 70.2346 41.6375 66.5404 41.6375C61.5868 41.6375 59.2507 38.9334 59.2507 34.5417V18.5291H65.1872V32.2076C65.1872 35.3361 66.8219 36.3625 69.3456 36.3625C71.6372 36.3625 73.4596 35.0993 74.4869 33.7916V18.5242H80.4233V41.075H74.4869V41.0799Z" fill="white"/>
<path d="M89.9008 9.93823H83.9694V41.0801H89.9008V9.93823Z" fill="white"/>
<path d="M108.97 33.0959V25.7632C107.942 24.3173 105.789 23.2416 103.878 23.2416C100.465 23.2416 98.1289 25.5806 98.1289 29.4493C98.1289 33.3179 100.465 35.6618 103.878 35.6618C105.794 35.6618 107.947 34.5368 108.97 33.0909M92.9876 46.8632L95.6497 42.6146C97.4721 44.5736 99.902 45.368 102.707 45.368C105.512 45.368 108.97 44.1542 108.97 39.5749V37.379C107.192 39.6243 104.767 40.8826 101.961 40.8826C96.3559 40.8826 92.0098 36.9645 92.0098 29.4443C92.0098 21.9241 96.2621 17.9617 101.961 17.9617C104.673 17.9617 107.147 19.0818 108.97 21.4158V18.5242H114.906V39.5798C114.906 48.1265 108.273 50.2286 102.712 50.2286C98.8796 50.2286 95.8423 49.3403 92.9926 46.8681" fill="white"/>
<path d="M128.69 22.8221C124.996 22.8221 123.411 25.393 123.174 27.6333H134.296C134.108 25.4868 132.612 22.8221 128.69 22.8221ZM117.01 29.7798C117.01 23.2416 121.87 17.9666 128.69 17.9666C135.511 17.9666 140 23.0096 140 30.3374V31.7388H123.223C123.643 34.4923 125.885 36.7819 129.717 36.7819C131.634 36.7819 134.251 35.9875 135.703 34.586L138.365 38.509C136.123 40.5667 132.572 41.6375 129.065 41.6375C122.201 41.6375 117.015 37.0089 117.015 29.7749" fill="white"/>
<path d="M7.69958 11.5221C5.63516 11.5221 3.96091 9.85426 3.96091 7.79162C3.96091 5.72899 5.63516 4.05618 7.69958 4.05618C9.764 4.05618 11.4333 5.72899 11.4333 7.79162C11.4333 9.85426 9.75906 11.5221 7.69958 11.5221ZM7.64032 0C3.30405 0 0 3.51339 0 7.8459V15.2576H7.42795C11.7642 15.2576 15.3893 11.9613 15.3893 7.62878C15.3893 3.29627 11.9766 0 7.64032 0Z" fill="#8BC53E"/>
<script xmlns=""/></svg>